<svg xmlns="http://www.w3.org/2000/svg" xmlns:xlink="http://www.w3.org/1999/xlink" width="500" zoomAndPan="magnify" viewBox="0 0 375 374.999991" height="500" preserveAspectRatio="xMidYMid meet" version="1.0"><path fill="#ffffff" d="M 233.355469 214.964844 L 284.4375 163.953125 C 285.4375 162.96875 286.382812 161.9375 287.28125 160.859375 C 288.175781 159.785156 289.019531 158.667969 289.808594 157.511719 C 290.601562 156.355469 291.332031 155.160156 292.007812 153.933594 C 292.683594 152.707031 293.296875 151.449219 293.851562 150.164062 C 294.40625 148.878906 294.894531 147.570312 295.324219 146.234375 C 295.75 144.902344 296.113281 143.550781 296.410156 142.183594 C 296.710938 140.8125 296.941406 139.433594 297.105469 138.042969 C 297.269531 136.652344 297.367188 135.257812 297.398438 133.859375 C 297.429688 132.460938 297.394531 131.0625 297.289062 129.664062 C 297.1875 128.269531 297.015625 126.878906 296.777344 125.5 C 296.539062 124.121094 296.238281 122.753906 295.867188 121.40625 C 295.5 120.054688 295.066406 118.722656 294.566406 117.414062 C 294.070312 116.105469 293.511719 114.824219 292.890625 113.566406 C 292.269531 112.3125 291.589844 111.089844 290.851562 109.898438 C 290.113281 108.707031 289.320312 107.554688 288.472656 106.441406 C 287.621094 105.328125 286.722656 104.257812 285.769531 103.230469 C 284.816406 102.203125 283.816406 101.222656 282.769531 100.289062 C 281.722656 99.359375 280.636719 98.480469 279.503906 97.652344 C 278.371094 96.824219 277.203125 96.054688 276 95.339844 C 274.792969 94.625 273.554688 93.96875 272.285156 93.371094 C 271.019531 92.777344 269.722656 92.242188 268.402344 91.769531 C 267.082031 91.296875 265.742188 90.890625 264.382812 90.546875 C 263.023438 90.203125 261.652344 89.925781 260.265625 89.714844 C 258.878906 89.503906 257.488281 89.359375 256.085938 89.28125 C 254.6875 89.203125 253.285156 89.195312 251.886719 89.25 C 250.484375 89.308594 249.089844 89.429688 247.699219 89.621094 C 246.3125 89.8125 244.933594 90.070312 243.570312 90.390625 C 242.207031 90.714844 240.859375 91.101562 239.53125 91.554688 C 238.207031 92.007812 236.902344 92.519531 235.625 93.097656 C 234.347656 93.675781 233.101562 94.3125 231.886719 95.007812 C 230.667969 95.707031 229.488281 96.460938 228.34375 97.269531 C 227.203125 98.078125 226.097656 98.941406 225.039062 99.859375 C 223.976562 98.949219 222.875 98.089844 221.730469 97.285156 C 220.589844 96.480469 219.410156 95.730469 218.191406 95.039062 C 216.976562 94.347656 215.730469 93.714844 214.457031 93.140625 C 213.179688 92.570312 211.878906 92.058594 210.554688 91.609375 C 209.226562 91.164062 207.882812 90.777344 206.523438 90.460938 C 205.160156 90.140625 203.785156 89.886719 202.398438 89.699219 C 201.011719 89.511719 199.621094 89.390625 198.222656 89.335938 C 196.824219 89.28125 195.425781 89.292969 194.027344 89.375 C 192.632812 89.453125 191.242188 89.601562 189.859375 89.8125 C 188.476562 90.027344 187.105469 90.304688 185.75 90.648438 C 184.394531 90.992188 183.058594 91.398438 181.742188 91.871094 C 180.421875 92.34375 179.132812 92.878906 177.867188 93.472656 C 176.601562 94.070312 175.367188 94.726562 174.164062 95.4375 C 172.960938 96.152344 171.796875 96.921875 170.667969 97.75 C 169.539062 98.574219 168.453125 99.453125 167.40625 100.382812 C 166.363281 101.3125 165.367188 102.289062 164.414062 103.316406 C 163.464844 104.339844 162.566406 105.410156 161.71875 106.519531 C 160.871094 107.632812 160.078125 108.78125 159.339844 109.96875 C 158.601562 111.15625 157.921875 112.375 157.304688 113.628906 C 156.683594 114.882812 156.125 116.160156 155.628906 117.464844 C 155.128906 118.773438 154.695312 120.097656 154.328125 121.445312 C 153.957031 122.792969 153.652344 124.15625 153.414062 125.53125 C 153.175781 126.910156 153.003906 128.292969 152.894531 129.6875 C 152.789062 131.082031 152.75 132.476562 152.78125 133.875 C 152.808594 135.269531 152.902344 136.664062 153.066406 138.050781 C 153.226562 139.4375 153.457031 140.816406 153.75 142.179688 C 154.042969 143.546875 154.402344 144.894531 154.828125 146.226562 C 155.25 147.558594 155.738281 148.867188 156.285156 150.152344 C 156.835938 151.4375 157.445312 152.691406 158.117188 153.917969 C 158.785156 155.144531 159.515625 156.335938 160.300781 157.496094 C 161.082031 158.652344 161.921875 159.769531 162.8125 160.84375 C 163.707031 161.921875 164.648438 162.953125 165.636719 163.9375 L 216.722656 214.949219 C 217.269531 215.492188 217.863281 215.980469 218.507812 216.40625 C 219.148438 216.832031 219.824219 217.195312 220.539062 217.488281 C 221.25 217.785156 221.988281 218.007812 222.742188 218.15625 C 223.5 218.308594 224.265625 218.382812 225.035156 218.382812 C 225.808594 218.382812 226.570312 218.308594 227.328125 218.160156 C 228.085938 218.011719 228.820312 217.789062 229.535156 217.496094 C 230.25 217.203125 230.925781 216.84375 231.570312 216.417969 C 232.210938 215.992188 232.808594 215.507812 233.355469 214.964844 Z M 182.246094 118.769531 C 182.710938 118.300781 183.203125 117.855469 183.714844 117.433594 C 184.226562 117.011719 184.757812 116.617188 185.308594 116.25 C 185.859375 115.882812 186.429688 115.542969 187.015625 115.230469 C 187.597656 114.917969 188.195312 114.632812 188.808594 114.378906 C 189.421875 114.125 190.046875 113.902344 190.679688 113.710938 C 191.316406 113.515625 191.957031 113.355469 192.609375 113.226562 C 193.257812 113.097656 193.914062 113 194.574219 112.933594 C 195.234375 112.871094 195.894531 112.835938 196.558594 112.835938 C 197.222656 112.835938 197.882812 112.871094 198.542969 112.933594 C 199.203125 113 199.859375 113.097656 200.507812 113.226562 C 201.160156 113.355469 201.800781 113.515625 202.4375 113.710938 C 203.070312 113.902344 203.695312 114.125 204.308594 114.378906 C 204.921875 114.632812 205.519531 114.917969 206.101562 115.230469 C 206.6875 115.542969 207.257812 115.882812 207.808594 116.25 C 208.359375 116.617188 208.890625 117.011719 209.402344 117.433594 C 209.914062 117.855469 210.40625 118.300781 210.871094 118.769531 L 216.589844 124.449219 C 217.136719 125.011719 217.734375 125.515625 218.382812 125.960938 C 219.03125 126.40625 219.71875 126.78125 220.445312 127.085938 C 221.167969 127.394531 221.917969 127.625 222.6875 127.78125 C 223.460938 127.9375 224.238281 128.015625 225.027344 128.015625 C 225.8125 128.015625 226.589844 127.9375 227.363281 127.78125 C 228.132812 127.625 228.882812 127.394531 229.605469 127.085938 C 230.332031 126.78125 231.019531 126.40625 231.667969 125.960938 C 232.316406 125.515625 232.914062 125.011719 233.464844 124.449219 L 239.179688 118.769531 C 239.648438 118.300781 240.136719 117.855469 240.648438 117.4375 C 241.164062 117.015625 241.695312 116.621094 242.246094 116.253906 C 242.796875 115.886719 243.363281 115.546875 243.949219 115.234375 C 244.535156 114.921875 245.132812 114.640625 245.746094 114.386719 C 246.359375 114.132812 246.980469 113.910156 247.617188 113.71875 C 248.25 113.527344 248.894531 113.367188 249.542969 113.238281 C 250.195312 113.105469 250.847656 113.011719 251.507812 112.945312 C 252.167969 112.878906 252.828125 112.847656 253.492188 112.847656 C 254.15625 112.847656 254.816406 112.878906 255.476562 112.945312 C 256.136719 113.011719 256.792969 113.105469 257.441406 113.238281 C 258.09375 113.367188 258.734375 113.527344 259.367188 113.71875 C 260.003906 113.910156 260.625 114.132812 261.238281 114.386719 C 261.851562 114.640625 262.449219 114.921875 263.035156 115.234375 C 263.621094 115.546875 264.1875 115.886719 264.738281 116.253906 C 265.289062 116.621094 265.820312 117.015625 266.335938 117.4375 C 266.847656 117.855469 267.339844 118.300781 267.808594 118.769531 C 268.277344 119.238281 268.71875 119.726562 269.140625 120.238281 C 269.5625 120.75 269.957031 121.28125 270.324219 121.832031 C 270.691406 122.382812 271.03125 122.949219 271.34375 123.535156 C 271.65625 124.117188 271.941406 124.714844 272.195312 125.328125 C 272.449219 125.9375 272.671875 126.5625 272.863281 127.195312 C 273.058594 127.828125 273.21875 128.46875 273.347656 129.117188 C 273.476562 129.769531 273.574219 130.421875 273.636719 131.082031 C 273.703125 131.738281 273.734375 132.402344 273.734375 133.0625 C 273.734375 133.726562 273.703125 134.386719 273.636719 135.042969 C 273.574219 135.703125 273.476562 136.355469 273.347656 137.007812 C 273.21875 137.65625 273.058594 138.296875 272.863281 138.929688 C 272.671875 139.5625 272.449219 140.1875 272.195312 140.796875 C 271.941406 141.410156 271.65625 142.007812 271.34375 142.589844 C 271.03125 143.175781 270.691406 143.742188 270.324219 144.292969 C 269.957031 144.84375 269.5625 145.375 269.140625 145.886719 C 268.71875 146.398438 268.277344 146.886719 267.808594 147.355469 L 225.039062 190.035156 L 182.257812 147.34375 C 181.789062 146.875 181.34375 146.386719 180.921875 145.875 C 180.5 145.363281 180.105469 144.832031 179.738281 144.285156 C 179.367188 143.734375 179.027344 143.167969 178.714844 142.582031 C 178.402344 142 178.117188 141.402344 177.863281 140.792969 C 177.609375 140.179688 177.386719 139.558594 177.191406 138.925781 C 177 138.292969 176.839844 137.648438 176.710938 137 C 176.578125 136.351562 176.480469 135.699219 176.417969 135.039062 C 176.351562 134.382812 176.316406 133.71875 176.316406 133.058594 C 176.316406 132.398438 176.351562 131.738281 176.414062 131.078125 C 176.480469 130.417969 176.578125 129.765625 176.707031 129.117188 C 176.835938 128.464844 176.996094 127.824219 177.1875 127.191406 C 177.378906 126.558594 177.601562 125.9375 177.855469 125.324219 C 178.109375 124.714844 178.394531 124.117188 178.707031 123.53125 C 179.019531 122.949219 179.359375 122.382812 179.726562 121.832031 C 180.09375 121.28125 180.488281 120.75 180.910156 120.238281 C 181.332031 119.726562 181.777344 119.238281 182.246094 118.769531 Z M 182.246094 118.769531 " fill-opacity="1" fill-rule="evenodd"/><path fill="#ffffff" d="M 363.867188 52.75 L 151.554688 52.75 C 150.78125 52.75 150.015625 52.824219 149.261719 52.976562 C 148.503906 53.125 147.769531 53.347656 147.054688 53.644531 C 146.34375 53.9375 145.664062 54.300781 145.023438 54.726562 C 144.382812 55.15625 143.789062 55.644531 143.242188 56.1875 C 142.695312 56.734375 142.210938 57.324219 141.78125 57.964844 C 141.351562 58.605469 140.988281 59.285156 140.695312 59.996094 C 140.398438 60.707031 140.175781 61.441406 140.027344 62.195312 C 139.875 62.953125 139.800781 63.714844 139.800781 64.488281 C 139.800781 65.257812 139.875 66.019531 140.027344 66.777344 C 140.175781 67.53125 140.398438 68.265625 140.695312 68.976562 C 140.988281 69.691406 141.351562 70.367188 141.78125 71.007812 C 142.210938 71.648438 142.695312 72.242188 143.242188 72.785156 C 143.789062 73.332031 144.382812 73.816406 145.023438 74.246094 C 145.664062 74.671875 146.34375 75.035156 147.054688 75.328125 C 147.769531 75.625 148.503906 75.847656 149.261719 75.996094 C 150.015625 76.148438 150.78125 76.222656 151.554688 76.222656 L 349.527344 76.222656 L 318.851562 229.472656 L 126.1875 229.472656 L 92.382812 18.480469 C 92.273438 17.800781 92.101562 17.128906 91.875 16.476562 C 91.644531 15.824219 91.359375 15.195312 91.019531 14.59375 C 90.679688 13.988281 90.292969 13.421875 89.851562 12.886719 C 89.410156 12.351562 88.925781 11.859375 88.398438 11.410156 C 87.871094 10.960938 87.308594 10.5625 86.710938 10.214844 C 86.113281 9.863281 85.488281 9.570312 84.839844 9.328125 C 84.1875 9.089844 83.523438 8.910156 82.839844 8.785156 C 82.15625 8.664062 81.46875 8.605469 80.777344 8.601562 L 9.988281 8.601562 C 9.214844 8.601562 8.449219 8.679688 7.695312 8.828125 C 6.9375 8.980469 6.203125 9.203125 5.488281 9.496094 C 4.777344 9.792969 4.097656 10.152344 3.457031 10.582031 C 2.816406 11.007812 2.222656 11.496094 1.675781 12.039062 C 1.128906 12.585938 0.644531 13.179688 0.214844 13.820312 C -0.214844 14.460938 -0.578125 15.136719 -0.871094 15.847656 C -1.167969 16.558594 -1.390625 17.292969 -1.539062 18.050781 C -1.691406 18.804688 -1.765625 19.570312 -1.765625 20.339844 C -1.765625 21.109375 -1.691406 21.875 -1.539062 22.628906 C -1.390625 23.386719 -1.167969 24.117188 -0.871094 24.832031 C -0.578125 25.542969 -0.214844 26.21875 0.214844 26.859375 C 0.644531 27.5 1.128906 28.09375 1.675781 28.636719 C 2.222656 29.183594 2.816406 29.671875 3.457031 30.097656 C 4.097656 30.527344 4.777344 30.886719 5.488281 31.183594 C 6.203125 31.476562 6.9375 31.699219 7.695312 31.851562 C 8.449219 32 9.214844 32.078125 9.988281 32.078125 L 70.75 32.078125 L 104.554688 243.066406 C 104.664062 243.75 104.832031 244.421875 105.0625 245.074219 C 105.289062 245.726562 105.574219 246.359375 105.914062 246.960938 C 106.253906 247.566406 106.644531 248.132812 107.085938 248.667969 C 107.527344 249.203125 108.011719 249.695312 108.539062 250.144531 C 109.066406 250.59375 109.628906 250.992188 110.230469 251.34375 C 110.828125 251.691406 111.453125 251.988281 112.105469 252.226562 C 112.757812 252.464844 113.421875 252.644531 114.105469 252.765625 C 114.789062 252.886719 115.476562 252.945312 116.171875 252.945312 L 328.460938 252.945312 C 329.132812 252.945312 329.804688 252.890625 330.46875 252.773438 C 331.132812 252.660156 331.78125 252.488281 332.414062 252.261719 C 333.050781 252.035156 333.660156 251.757812 334.246094 251.425781 C 334.832031 251.09375 335.386719 250.71875 335.90625 250.289062 C 336.429688 249.863281 336.910156 249.398438 337.351562 248.886719 C 337.792969 248.378906 338.1875 247.835938 338.535156 247.261719 C 338.878906 246.683594 339.175781 246.082031 339.421875 245.453125 C 339.664062 244.828125 339.851562 244.183594 339.984375 243.523438 L 375.40625 66.828125 C 375.492188 66.402344 375.554688 65.972656 375.59375 65.542969 C 375.632812 65.109375 375.648438 64.675781 375.636719 64.242188 C 375.628906 63.808594 375.59375 63.378906 375.535156 62.949219 C 375.480469 62.519531 375.398438 62.09375 375.292969 61.671875 C 375.1875 61.25 375.0625 60.835938 374.910156 60.429688 C 374.761719 60.023438 374.589844 59.625 374.394531 59.234375 C 374.199219 58.847656 373.984375 58.472656 373.746094 58.109375 C 373.511719 57.746094 373.253906 57.394531 372.980469 57.058594 C 372.703125 56.722656 372.410156 56.402344 372.101562 56.101562 C 371.789062 55.796875 371.464844 55.511719 371.121094 55.242188 C 370.777344 54.976562 370.421875 54.730469 370.054688 54.5 C 369.683594 54.273438 369.300781 54.066406 368.910156 53.878906 C 368.515625 53.695312 368.117188 53.53125 367.703125 53.390625 C 367.292969 53.25 366.875 53.128906 366.453125 53.035156 C 366.027344 52.941406 365.601562 52.871094 365.167969 52.820312 C 364.738281 52.773438 364.304688 52.75 363.867188 52.75 Z M 363.867188 52.75 " fill-opacity="1" fill-rule="evenodd"/><path fill="#ffffff" d="M 153.765625 273.648438 C 152.292969 273.644531 150.824219 273.71875 149.359375 273.863281 C 147.894531 274.003906 146.4375 274.21875 144.996094 274.507812 C 143.550781 274.792969 142.125 275.148438 140.71875 275.574219 C 139.308594 276 137.925781 276.496094 136.5625 277.058594 C 135.203125 277.621094 133.875 278.246094 132.578125 278.941406 C 131.277344 279.632812 130.015625 280.386719 128.792969 281.203125 C 127.570312 282.019531 126.386719 282.894531 125.25 283.828125 C 124.113281 284.757812 123.023438 285.746094 121.980469 286.785156 C 120.941406 287.824219 119.953125 288.910156 119.019531 290.046875 C 118.085938 291.183594 117.207031 292.363281 116.390625 293.582031 C 115.574219 294.804688 114.816406 296.066406 114.121094 297.359375 C 113.429688 298.65625 112.800781 299.984375 112.234375 301.34375 C 111.671875 302.699219 111.175781 304.082031 110.75 305.488281 C 110.320312 306.894531 109.964844 308.320312 109.675781 309.761719 C 109.390625 311.203125 109.175781 312.65625 109.03125 314.117188 C 108.886719 315.578125 108.8125 317.046875 108.8125 318.515625 C 108.8125 319.984375 108.882812 321.453125 109.027344 322.914062 C 109.171875 324.378906 109.386719 325.832031 109.675781 327.273438 C 109.960938 328.714844 110.320312 330.136719 110.746094 331.542969 C 111.175781 332.949219 111.667969 334.332031 112.234375 335.691406 C 112.796875 337.050781 113.425781 338.375 114.117188 339.671875 C 114.8125 340.96875 115.566406 342.226562 116.386719 343.449219 C 117.203125 344.671875 118.078125 345.851562 119.011719 346.988281 C 119.945312 348.125 120.933594 349.210938 121.976562 350.25 C 123.015625 351.289062 124.105469 352.277344 125.242188 353.210938 C 126.378906 354.140625 127.5625 355.015625 128.785156 355.832031 C 130.007812 356.648438 131.269531 357.402344 132.570312 358.097656 C 133.867188 358.789062 135.195312 359.417969 136.554688 359.980469 C 137.914062 360.542969 139.300781 361.035156 140.707031 361.464844 C 142.117188 361.890625 143.542969 362.246094 144.988281 362.53125 C 146.429688 362.820312 147.886719 363.035156 149.351562 363.179688 C 150.816406 363.324219 152.28125 363.394531 153.753906 363.394531 C 155.226562 363.394531 156.695312 363.320312 158.160156 363.179688 C 159.625 363.035156 161.078125 362.816406 162.523438 362.53125 C 163.964844 362.246094 165.394531 361.886719 166.800781 361.460938 C 168.210938 361.035156 169.59375 360.539062 170.953125 359.976562 C 172.3125 359.414062 173.640625 358.785156 174.941406 358.09375 C 176.238281 357.398438 177.5 356.644531 178.722656 355.828125 C 179.945312 355.011719 181.128906 354.136719 182.265625 353.203125 C 183.402344 352.269531 184.492188 351.285156 185.53125 350.246094 C 186.574219 349.207031 187.558594 348.117188 188.492188 346.980469 C 189.425781 345.84375 190.304688 344.664062 191.121094 343.441406 C 191.9375 342.21875 192.695312 340.960938 193.386719 339.664062 C 194.082031 338.367188 194.707031 337.039062 195.273438 335.683594 C 195.835938 334.324219 196.328125 332.941406 196.757812 331.535156 C 197.183594 330.128906 197.539062 328.703125 197.828125 327.261719 C 198.113281 325.820312 198.328125 324.367188 198.472656 322.90625 C 198.617188 321.445312 198.6875 319.976562 198.6875 318.507812 C 198.6875 317.039062 198.617188 315.574219 198.472656 314.109375 C 198.324219 312.648438 198.109375 311.195312 197.824219 309.757812 C 197.535156 308.316406 197.179688 306.890625 196.75 305.488281 C 196.324219 304.082031 195.828125 302.699219 195.265625 301.34375 C 194.703125 299.984375 194.074219 298.660156 193.378906 297.363281 C 192.6875 296.066406 191.929688 294.808594 191.113281 293.585938 C 190.296875 292.367188 189.421875 291.1875 188.488281 290.050781 C 187.554688 288.917969 186.566406 287.828125 185.527344 286.789062 C 184.484375 285.75 183.398438 284.765625 182.261719 283.832031 C 181.121094 282.902344 179.941406 282.027344 178.71875 281.210938 C 177.496094 280.394531 176.234375 279.640625 174.9375 278.949219 C 173.640625 278.253906 172.3125 277.628906 170.953125 277.066406 C 169.59375 276.503906 168.210938 276.007812 166.804688 275.582031 C 165.394531 275.15625 163.96875 274.796875 162.527344 274.511719 C 161.085938 274.222656 159.632812 274.007812 158.167969 273.863281 C 156.703125 273.71875 155.234375 273.648438 153.765625 273.648438 Z M 153.765625 339.90625 C 153.0625 339.910156 152.363281 339.875 151.664062 339.804688 C 150.964844 339.738281 150.269531 339.636719 149.582031 339.5 C 148.894531 339.363281 148.214844 339.191406 147.542969 338.988281 C 146.871094 338.789062 146.210938 338.550781 145.5625 338.285156 C 144.914062 338.015625 144.277344 337.71875 143.660156 337.386719 C 143.039062 337.058594 142.4375 336.699219 141.855469 336.308594 C 141.269531 335.917969 140.707031 335.503906 140.164062 335.058594 C 139.621094 334.613281 139.101562 334.144531 138.605469 333.648438 C 138.109375 333.152344 137.636719 332.636719 137.191406 332.09375 C 136.746094 331.550781 136.328125 330.992188 135.9375 330.40625 C 135.546875 329.824219 135.1875 329.226562 134.855469 328.605469 C 134.523438 327.988281 134.226562 327.355469 133.957031 326.710938 C 133.6875 326.0625 133.449219 325.402344 133.246094 324.734375 C 133.042969 324.0625 132.871094 323.382812 132.734375 322.695312 C 132.597656 322.007812 132.492188 321.316406 132.425781 320.617188 C 132.355469 319.921875 132.320312 319.222656 132.320312 318.519531 C 132.320312 317.820312 132.351562 317.121094 132.421875 316.421875 C 132.488281 315.726562 132.59375 315.03125 132.726562 314.34375 C 132.863281 313.65625 133.035156 312.980469 133.238281 312.308594 C 133.441406 311.636719 133.675781 310.976562 133.945312 310.328125 C 134.214844 309.683594 134.511719 309.050781 134.84375 308.429688 C 135.175781 307.8125 135.535156 307.210938 135.921875 306.628906 C 136.3125 306.046875 136.730469 305.484375 137.175781 304.941406 C 137.621094 304.398438 138.089844 303.878906 138.585938 303.382812 C 139.082031 302.886719 139.601562 302.417969 140.144531 301.972656 C 140.6875 301.527344 141.25 301.109375 141.832031 300.722656 C 142.417969 300.332031 143.015625 299.972656 143.636719 299.640625 C 144.253906 299.308594 144.886719 299.007812 145.535156 298.742188 C 146.183594 298.472656 146.84375 298.234375 147.515625 298.03125 C 148.1875 297.828125 148.867188 297.65625 149.554688 297.519531 C 150.246094 297.382812 150.9375 297.28125 151.636719 297.210938 C 152.335938 297.140625 153.035156 297.105469 153.738281 297.105469 C 154.4375 297.105469 155.140625 297.140625 155.835938 297.207031 C 156.535156 297.277344 157.230469 297.378906 157.917969 297.515625 C 158.605469 297.652344 159.285156 297.820312 159.957031 298.023438 C 160.628906 298.226562 161.289062 298.460938 161.9375 298.730469 C 162.585938 299 163.222656 299.296875 163.839844 299.628906 C 164.460938 299.957031 165.0625 300.316406 165.644531 300.707031 C 166.230469 301.09375 166.792969 301.511719 167.335938 301.957031 C 167.878906 302.398438 168.398438 302.871094 168.894531 303.367188 C 169.390625 303.859375 169.863281 304.378906 170.308594 304.921875 C 170.753906 305.460938 171.171875 306.023438 171.5625 306.605469 C 171.953125 307.1875 172.3125 307.789062 172.644531 308.40625 C 172.976562 309.023438 173.277344 309.65625 173.546875 310.304688 C 173.8125 310.953125 174.050781 311.613281 174.253906 312.28125 C 174.457031 312.953125 174.628906 313.632812 174.765625 314.320312 C 174.90625 315.007812 175.007812 315.699219 175.078125 316.394531 C 175.144531 317.09375 175.179688 317.792969 175.179688 318.492188 C 175.183594 319.195312 175.148438 319.894531 175.078125 320.59375 C 175.011719 321.289062 174.910156 321.980469 174.773438 322.671875 C 174.636719 323.359375 174.464844 324.039062 174.261719 324.707031 C 174.058594 325.378906 173.824219 326.039062 173.554688 326.6875 C 173.289062 327.335938 172.988281 327.96875 172.65625 328.585938 C 172.328125 329.203125 171.96875 329.804688 171.578125 330.390625 C 171.1875 330.972656 170.769531 331.535156 170.324219 332.078125 C 169.882812 332.621094 169.410156 333.140625 168.914062 333.636719 C 168.417969 334.132812 167.898438 334.601562 167.359375 335.046875 C 166.816406 335.492188 166.253906 335.910156 165.667969 336.300781 C 165.085938 336.691406 164.484375 337.050781 163.867188 337.382812 C 163.246094 337.714844 162.613281 338.011719 161.964844 338.28125 C 161.316406 338.550781 160.65625 338.789062 159.984375 338.992188 C 159.3125 339.195312 158.632812 339.367188 157.945312 339.503906 C 157.257812 339.640625 156.5625 339.746094 155.863281 339.816406 C 155.167969 339.886719 154.464844 339.921875 153.765625 339.921875 Z M 153.765625 339.90625 " fill-opacity="1" fill-rule="evenodd"/><path fill="#ffffff" d="M 286.460938 273.648438 C 284.988281 273.648438 283.519531 273.71875 282.054688 273.863281 C 280.59375 274.007812 279.136719 274.222656 277.695312 274.511719 C 276.25 274.796875 274.824219 275.15625 273.417969 275.582031 C 272.007812 276.011719 270.625 276.503906 269.265625 277.066406 C 267.90625 277.628906 266.578125 278.257812 265.277344 278.953125 C 263.980469 279.644531 262.722656 280.398438 261.496094 281.21875 C 260.273438 282.035156 259.09375 282.910156 257.957031 283.839844 C 256.820312 284.773438 255.730469 285.761719 254.6875 286.800781 C 253.648438 287.839844 252.660156 288.925781 251.730469 290.0625 C 250.796875 291.199219 249.921875 292.378906 249.101562 293.601562 C 248.285156 294.824219 247.53125 296.082031 246.835938 297.378906 C 246.144531 298.675781 245.515625 300.003906 244.953125 301.359375 C 244.390625 302.71875 243.894531 304.101562 243.46875 305.507812 C 243.042969 306.914062 242.683594 308.339844 242.398438 309.78125 C 242.109375 311.222656 241.894531 312.671875 241.75 314.136719 C 241.609375 315.597656 241.535156 317.066406 241.535156 318.535156 C 241.539062 320.003906 241.609375 321.46875 241.753906 322.933594 C 241.898438 324.394531 242.117188 325.847656 242.402344 327.289062 C 242.691406 328.730469 243.046875 330.152344 243.476562 331.558594 C 243.902344 332.964844 244.398438 334.347656 244.960938 335.707031 C 245.527344 337.0625 246.15625 338.390625 246.847656 339.6875 C 247.542969 340.980469 248.300781 342.242188 249.117188 343.460938 C 249.9375 344.683594 250.8125 345.863281 251.746094 347 C 252.679688 348.132812 253.667969 349.222656 254.707031 350.261719 C 255.75 351.300781 256.839844 352.285156 257.976562 353.21875 C 259.113281 354.148438 260.296875 355.023438 261.519531 355.839844 C 262.742188 356.65625 264.003906 357.410156 265.304688 358.101562 C 266.601562 358.792969 267.929688 359.421875 269.289062 359.984375 C 270.648438 360.546875 272.035156 361.039062 273.441406 361.464844 C 274.851562 361.890625 276.277344 362.25 277.722656 362.535156 C 279.164062 362.820312 280.617188 363.035156 282.082031 363.179688 C 283.546875 363.324219 285.015625 363.394531 286.488281 363.394531 C 287.960938 363.394531 289.429688 363.320312 290.894531 363.175781 C 292.355469 363.03125 293.8125 362.816406 295.253906 362.53125 C 296.699219 362.242188 298.125 361.886719 299.53125 361.457031 C 300.941406 361.03125 302.324219 360.535156 303.683594 359.972656 C 305.042969 359.410156 306.371094 358.78125 307.671875 358.089844 C 308.96875 357.394531 310.226562 356.640625 311.453125 355.824219 C 312.675781 355.007812 313.855469 354.132812 314.992188 353.199219 C 316.128906 352.265625 317.21875 351.28125 318.261719 350.242188 C 319.300781 349.203125 320.289062 348.113281 321.21875 346.976562 C 322.152344 345.839844 323.027344 344.664062 323.847656 343.441406 C 324.664062 342.21875 325.417969 340.957031 326.113281 339.664062 C 326.804688 338.367188 327.433594 337.039062 327.996094 335.679688 C 328.558594 334.324219 329.054688 332.941406 329.480469 331.535156 C 329.90625 330.128906 330.265625 328.703125 330.550781 327.261719 C 330.839844 325.820312 331.054688 324.367188 331.199219 322.90625 C 331.339844 321.441406 331.414062 319.976562 331.414062 318.507812 C 331.410156 317.039062 331.339844 315.570312 331.195312 314.109375 C 331.050781 312.644531 330.832031 311.195312 330.546875 309.753906 C 330.257812 308.3125 329.902344 306.886719 329.472656 305.480469 C 329.046875 304.074219 328.550781 302.695312 327.988281 301.335938 C 327.421875 299.976562 326.792969 298.652344 326.101562 297.355469 C 325.40625 296.058594 324.648438 294.800781 323.832031 293.578125 C 323.011719 292.355469 322.136719 291.179688 321.203125 290.042969 C 320.269531 288.90625 319.28125 287.820312 318.242188 286.78125 C 317.199219 285.742188 316.109375 284.757812 314.972656 283.824219 C 313.835938 282.890625 312.652344 282.019531 311.429688 281.203125 C 310.207031 280.386719 308.945312 279.632812 307.644531 278.9375 C 306.347656 278.246094 305.019531 277.621094 303.660156 277.058594 C 302.300781 276.496094 300.914062 276 299.507812 275.574219 C 298.097656 275.148438 296.671875 274.792969 295.226562 274.507812 C 293.785156 274.21875 292.332031 274.003906 290.867188 273.863281 C 289.402344 273.71875 287.933594 273.644531 286.460938 273.648438 Z M 286.460938 339.90625 C 285.757812 339.90625 285.058594 339.871094 284.359375 339.804688 C 283.664062 339.734375 282.96875 339.632812 282.28125 339.496094 C 281.59375 339.355469 280.914062 339.1875 280.242188 338.984375 C 279.570312 338.777344 278.910156 338.542969 278.261719 338.273438 C 277.613281 338.007812 276.980469 337.707031 276.363281 337.375 C 275.742188 337.046875 275.144531 336.683594 274.558594 336.296875 C 273.976562 335.90625 273.414062 335.488281 272.871094 335.042969 C 272.328125 334.597656 271.808594 334.128906 271.3125 333.632812 C 270.816406 333.136719 270.347656 332.617188 269.902344 332.078125 C 269.457031 331.535156 269.039062 330.972656 268.652344 330.390625 C 268.261719 329.808594 267.902344 329.207031 267.570312 328.589844 C 267.238281 327.972656 266.941406 327.339844 266.671875 326.691406 C 266.402344 326.042969 266.167969 325.382812 265.964844 324.714844 C 265.761719 324.042969 265.589844 323.363281 265.453125 322.675781 C 265.316406 321.988281 265.214844 321.296875 265.144531 320.601562 C 265.078125 319.902344 265.042969 319.203125 265.042969 318.503906 C 265.042969 317.800781 265.078125 317.101562 265.148438 316.40625 C 265.214844 315.707031 265.320312 315.015625 265.457031 314.328125 C 265.59375 313.640625 265.761719 312.960938 265.96875 312.292969 C 266.171875 311.621094 266.40625 310.964844 266.675781 310.316406 C 266.945312 309.667969 267.246094 309.035156 267.574219 308.417969 C 267.90625 307.800781 268.265625 307.199219 268.65625 306.617188 C 269.046875 306.035156 269.464844 305.472656 269.910156 304.929688 C 270.355469 304.390625 270.824219 303.871094 271.320312 303.375 C 271.816406 302.878906 272.335938 302.410156 272.878906 301.964844 C 273.421875 301.519531 273.984375 301.101562 274.566406 300.714844 C 275.152344 300.324219 275.75 299.964844 276.371094 299.632812 C 276.988281 299.304688 277.621094 299.003906 278.269531 298.738281 C 278.917969 298.46875 279.578125 298.234375 280.25 298.027344 C 280.921875 297.824219 281.601562 297.65625 282.289062 297.519531 C 282.980469 297.382812 283.671875 297.277344 284.371094 297.210938 C 285.070312 297.140625 285.769531 297.105469 286.46875 297.105469 C 287.171875 297.105469 287.871094 297.140625 288.570312 297.210938 C 289.269531 297.277344 289.960938 297.378906 290.648438 297.515625 C 291.339844 297.652344 292.019531 297.824219 292.691406 298.027344 C 293.363281 298.230469 294.019531 298.464844 294.667969 298.734375 C 295.316406 299 295.953125 299.300781 296.570312 299.628906 C 297.191406 299.960938 297.789062 300.320312 298.375 300.710938 C 298.957031 301.097656 299.519531 301.515625 300.0625 301.960938 C 300.605469 302.402344 301.125 302.875 301.621094 303.367188 C 302.117188 303.863281 302.589844 304.382812 303.035156 304.921875 C 303.480469 305.464844 303.898438 306.027344 304.289062 306.609375 C 304.679688 307.191406 305.039062 307.792969 305.371094 308.410156 C 305.703125 309.027344 306 309.660156 306.269531 310.308594 C 306.539062 310.953125 306.777344 311.613281 306.980469 312.285156 C 307.183594 312.953125 307.355469 313.632812 307.492188 314.320312 C 307.628906 315.007812 307.730469 315.699219 307.800781 316.398438 C 307.871094 317.09375 307.90625 317.792969 307.90625 318.492188 C 307.90625 319.195312 307.871094 319.894531 307.804688 320.59375 C 307.734375 321.292969 307.632812 321.984375 307.496094 322.671875 C 307.359375 323.363281 307.1875 324.042969 306.984375 324.714844 C 306.78125 325.382812 306.546875 326.042969 306.277344 326.691406 C 306.007812 327.339844 305.707031 327.976562 305.378906 328.59375 C 305.046875 329.210938 304.6875 329.8125 304.296875 330.398438 C 303.90625 330.980469 303.488281 331.542969 303.042969 332.085938 C 302.597656 332.628906 302.125 333.148438 301.628906 333.644531 C 301.132812 334.140625 300.613281 334.613281 300.070312 335.058594 C 299.527344 335.503906 298.964844 335.917969 298.378906 336.308594 C 297.796875 336.699219 297.195312 337.058594 296.574219 337.390625 C 295.953125 337.722656 295.320312 338.019531 294.671875 338.289062 C 294.023438 338.558594 293.359375 338.792969 292.6875 339 C 292.015625 339.203125 291.335938 339.371094 290.644531 339.507812 C 289.957031 339.644531 289.261719 339.75 288.5625 339.816406 C 287.863281 339.886719 287.164062 339.921875 286.460938 339.921875 Z M 286.460938 339.90625 " fill-opacity="1" fill-rule="evenodd"/></svg>