<svg xmlns="http://www.w3.org/2000/svg" xmlns:xlink="http://www.w3.org/1999/xlink" width="500" zoomAndPan="magnify" viewBox="0 0 375 374.999991" height="500" preserveAspectRatio="xMidYMid meet" version="1.0"><path fill="#ffffff" d="M 323.355469 369.132812 L 235.921875 281.699219 C 211.957031 297.378906 183.316406 306.574219 152.414062 306.574219 C 68.148438 306.574219 0 238.273438 0 154.007812 C 0 69.898438 68.140625 1.597656 152.414062 1.597656 C 236.539062 1.597656 304.8125 69.898438 304.8125 154.007812 C 304.8125 183.421875 296.53125 210.832031 282.203125 234.050781 L 370.257812 322.09375 C 374.921875 326.625 371.011719 337.933594 361.65625 347.261719 L 348.542969 360.40625 C 339.1875 369.738281 327.882812 373.648438 323.355469 369.132812 Z M 254.167969 154.007812 C 254.167969 97.773438 208.632812 52.242188 152.40625 52.242188 C 96.171875 52.242188 50.5 97.773438 50.5 154.007812 C 50.5 210.238281 96.171875 255.910156 152.40625 255.910156 C 208.632812 255.910156 254.167969 210.246094 254.167969 154.007812 Z M 254.167969 154.007812 " fill-opacity="1" fill-rule="nonzero"/></svg>