<svg xmlns="http://www.w3.org/2000/svg" xmlns:xlink="http://www.w3.org/1999/xlink" width="500" zoomAndPan="magnify" viewBox="0 0 375 374.999991" height="500" preserveAspectRatio="xMidYMid meet" version="1.0"><defs><clipPath id="71c74665fd"><path d="M 37.5 248 L 337.5 248 L 337.5 301 L 37.5 301 Z M 37.5 248 " clip-rule="nonzero"/></clipPath><clipPath id="2417f92e3c"><path d="M 37.5 74 L 337.5 74 L 337.5 127 L 37.5 127 Z M 37.5 74 " clip-rule="nonzero"/></clipPath><clipPath id="5e58dcf741"><path d="M 37.5 161 L 337.5 161 L 337.5 214 L 37.5 214 Z M 37.5 161 " clip-rule="nonzero"/></clipPath><clipPath id="9798ec984c"><path d="M 37.5 74 L 337.5 74 L 337.5 127 L 37.5 127 Z M 37.5 74 " clip-rule="nonzero"/></clipPath><clipPath id="831af945e6"><path d="M 37.5 161 L 337.5 161 L 337.5 214 L 37.5 214 Z M 37.5 161 " clip-rule="nonzero"/></clipPath><clipPath id="6a698da30c"><path d="M 37.5 248 L 337.5 248 L 337.5 301 L 37.5 301 Z M 37.5 248 " clip-rule="nonzero"/></clipPath></defs><g clip-path="url(#71c74665fd)"><path fill="#ffffff" d="M 333.890625 263.882812 C 330.144531 254.421875 320.964844 248.910156 309.609375 248.910156 C 309.609375 248.910156 60.585938 248.910156 60.585938 248.910156 C 40.277344 248.910156 32.15625 271.605469 41.121094 286.367188 C 42.910156 290.796875 46.011719 294.792969 50.539062 297.671875 C 57.152344 301.890625 66.015625 300.867188 73.523438 300.867188 C 73.523438 300.867188 312.960938 300.867188 312.960938 300.867188 C 326.359375 300.867188 336.78125 291.316406 337.476562 277.882812 C 337.488281 277.765625 337.5 277.644531 337.5 277.53125 C 337.5 277.398438 337.5 277.269531 337.488281 277.164062 C 337.429688 272.027344 336.148438 267.550781 333.890625 263.882812 Z M 333.890625 263.882812 " fill-opacity="1" fill-rule="nonzero"/></g><g clip-path="url(#2417f92e3c)"><path fill="#ffffff" d="M 50.539062 122.792969 C 57.152344 127 66.015625 125.980469 73.523438 125.980469 C 73.523438 125.980469 312.960938 125.980469 312.960938 125.980469 C 326.359375 125.980469 336.78125 116.425781 337.476562 102.992188 C 337.488281 102.875 337.5 102.757812 337.5 102.640625 C 337.5 102.511719 337.5 102.378906 337.488281 102.273438 C 337.429688 97.140625 336.148438 92.660156 333.890625 88.992188 C 330.144531 79.53125 320.964844 74.019531 309.609375 74.019531 C 309.609375 74.019531 60.585938 74.019531 60.585938 74.019531 C 40.277344 74.019531 32.15625 96.714844 41.121094 111.476562 C 42.910156 115.921875 46.011719 119.914062 50.539062 122.792969 Z M 50.539062 122.792969 " fill-opacity="1" fill-rule="nonzero"/></g><g clip-path="url(#5e58dcf741)"><path fill="#ffffff" d="M 333.90625 176.445312 C 330.144531 166.984375 320.964844 161.472656 309.609375 161.472656 C 309.609375 161.472656 60.585938 161.472656 60.585938 161.472656 C 40.277344 161.472656 32.15625 184.167969 41.121094 198.929688 C 42.910156 203.359375 46.011719 207.355469 50.539062 210.234375 C 57.152344 214.441406 66.015625 213.417969 73.523438 213.417969 C 73.523438 213.417969 312.960938 213.417969 312.960938 213.417969 C 326.359375 213.417969 336.78125 203.863281 337.476562 190.429688 C 337.488281 190.3125 337.5 190.195312 337.5 190.078125 C 337.5 189.949219 337.5 189.820312 337.488281 189.714844 C 337.429688 184.589844 336.148438 180.113281 333.90625 176.445312 Z M 333.90625 176.445312 " fill-opacity="1" fill-rule="nonzero"/></g><g clip-path="url(#9798ec984c)"><path fill="#ffffff" d="M 50.539062 122.792969 C 57.152344 127 66.015625 125.980469 73.523438 125.980469 C 73.523438 125.980469 312.960938 125.980469 312.960938 125.980469 C 326.359375 125.980469 336.78125 116.425781 337.476562 102.992188 C 337.488281 102.875 337.5 102.757812 337.5 102.640625 C 337.5 102.511719 337.5 102.378906 337.488281 102.273438 C 337.429688 97.140625 336.148438 92.660156 333.890625 88.992188 C 330.144531 79.53125 320.964844 74.019531 309.609375 74.019531 C 309.609375 74.019531 60.585938 74.019531 60.585938 74.019531 C 40.277344 74.019531 32.15625 96.714844 41.121094 111.476562 C 42.910156 115.921875 46.011719 119.914062 50.539062 122.792969 Z M 60.738281 78.722656 C 60.738281 78.722656 311.691406 78.722656 311.691406 78.722656 C 323.46875 78.722656 331.035156 87.761719 331.035156 99.113281 C 330.625 109.820312 322.410156 117.753906 311.691406 117.753906 C 311.691406 117.753906 69.765625 117.753906 69.765625 117.753906 C 58.175781 117.753906 46.246094 117.304688 42.390625 103.296875 C 39.089844 91.273438 48.1875 78.722656 60.738281 78.722656 Z M 60.738281 78.722656 " fill-opacity="1" fill-rule="nonzero"/></g><g clip-path="url(#831af945e6)"><path fill="#ffffff" d="M 333.90625 176.445312 C 330.144531 166.984375 320.964844 161.472656 309.609375 161.472656 C 309.609375 161.472656 60.585938 161.472656 60.585938 161.472656 C 40.277344 161.472656 32.15625 184.167969 41.121094 198.929688 C 42.910156 203.359375 46.011719 207.355469 50.539062 210.234375 C 57.152344 214.441406 66.015625 213.417969 73.523438 213.417969 C 73.523438 213.417969 312.960938 213.417969 312.960938 213.417969 C 326.359375 213.417969 336.78125 203.863281 337.476562 190.429688 C 337.488281 190.3125 337.5 190.195312 337.5 190.078125 C 337.5 189.949219 337.5 189.820312 337.488281 189.714844 C 337.429688 184.589844 336.148438 180.113281 333.90625 176.445312 Z M 311.691406 205.191406 C 311.691406 205.191406 69.765625 205.191406 69.765625 205.191406 C 58.175781 205.191406 46.246094 204.746094 42.390625 190.75 C 39.089844 178.714844 48.1875 166.171875 60.738281 166.171875 C 60.738281 166.171875 311.691406 166.171875 311.691406 166.171875 C 323.46875 166.171875 331.035156 175.199219 331.035156 186.550781 C 330.625 197.269531 322.410156 205.191406 311.691406 205.191406 Z M 311.691406 205.191406 " fill-opacity="1" fill-rule="nonzero"/></g><g clip-path="url(#6a698da30c)"><path fill="#ffffff" d="M 333.890625 263.882812 C 330.144531 254.421875 320.964844 248.910156 309.609375 248.910156 C 309.609375 248.910156 60.585938 248.910156 60.585938 248.910156 C 40.277344 248.910156 32.15625 271.605469 41.121094 286.367188 C 42.910156 290.796875 46.011719 294.792969 50.539062 297.671875 C 57.152344 301.890625 66.015625 300.867188 73.523438 300.867188 C 73.523438 300.867188 312.960938 300.867188 312.960938 300.867188 C 326.359375 300.867188 336.78125 291.316406 337.476562 277.882812 C 337.488281 277.765625 337.5 277.644531 337.5 277.53125 C 337.5 277.398438 337.5 277.269531 337.488281 277.164062 C 337.429688 272.027344 336.148438 267.550781 333.890625 263.882812 Z M 311.691406 292.644531 C 311.691406 292.644531 69.765625 292.644531 69.765625 292.644531 C 58.175781 292.644531 46.246094 292.195312 42.390625 278.1875 C 39.089844 266.152344 48.1875 253.613281 60.738281 253.613281 C 60.738281 253.613281 311.691406 253.613281 311.691406 253.613281 C 323.46875 253.613281 331.035156 262.648438 331.035156 274.003906 C 330.625 284.710938 322.410156 292.644531 311.691406 292.644531 Z M 311.691406 292.644531 " fill-opacity="1" fill-rule="nonzero"/></g></svg>