<svg xmlns="http://www.w3.org/2000/svg" xmlns:xlink="http://www.w3.org/1999/xlink" width="500" zoomAndPan="magnify" viewBox="0 0 375 374.999991" height="500" preserveAspectRatio="xMidYMid meet" version="1.0"><path fill="#df4285" d="M 54.589844 7.253906 L 318.488281 7.253906 C 345.78125 7.253906 367.910156 29.382812 367.910156 56.675781 L 367.910156 320.574219 C 367.910156 347.867188 345.78125 369.996094 318.488281 369.996094 L 54.589844 369.996094 C 27.296875 369.996094 5.167969 347.867188 5.167969 320.574219 L 5.167969 56.675781 C 5.167969 29.382812 27.296875 7.253906 54.589844 7.253906 Z M 54.589844 7.253906 " fill-opacity="1" fill-rule="nonzero"/><path fill="#fdfdfd" d="M 318.503906 377.25 L 54.574219 377.25 C 23.335938 377.25 -2.085938 351.828125 -2.085938 320.574219 L -2.085938 56.675781 C -2.085938 25.421875 23.335938 0 54.574219 0 L 318.476562 0 C 349.742188 0 375.164062 25.421875 375.164062 56.675781 L 375.164062 320.574219 C 375.164062 351.828125 349.742188 377.25 318.503906 377.25 Z M 54.574219 14.507812 C 31.34375 14.507812 12.421875 33.429688 12.421875 56.675781 L 12.421875 320.574219 C 12.421875 343.820312 31.34375 362.742188 54.574219 362.742188 L 318.488281 362.742188 C 341.734375 362.742188 360.652344 343.820312 360.652344 320.574219 L 360.652344 56.675781 C 360.652344 33.429688 341.734375 14.507812 318.488281 14.507812 Z M 54.574219 14.507812 " fill-opacity="1" fill-rule="nonzero"/><path fill="#ffb5d2" d="M 240.472656 154.441406 C 256.34375 165.785156 281.097656 174.625 302.109375 174.625 L 302.109375 134.214844 C 298.132812 134.214844 291.996094 131.632812 288.105469 130.804688 L 288.105469 162.609375 C 267.097656 162.609375 244.535156 155.933594 228.632812 144.589844 L 228.632812 227.046875 C 228.632812 268.296875 195.171875 303.890625 153.890625 303.890625 C 138.496094 303.890625 124.175781 297.085938 112.292969 289.105469 C 125.859375 302.976562 144.792969 313.710938 165.730469 313.710938 C 206.996094 313.710938 240.472656 278.136719 240.472656 236.882812 Z M 255.066406 113.667969 C 246.957031 104.816406 241.632812 90.960938 240.472656 78.292969 L 240.472656 72.316406 L 229.253906 72.316406 C 232.070312 88.40625 241.703125 105.339844 255.066406 113.667969 Z M 138.410156 257.457031 C 133.867188 251.507812 131.429688 244.253906 131.429688 236.769531 C 131.429688 217.890625 147.710938 203.121094 166.589844 203.121094 C 170.097656 203.121094 180.503906 203.132812 183.855469 204.195312 L 183.855469 161.492188 C 179.9375 160.957031 175.992188 160.722656 172.027344 160.808594 L 172.027344 193.066406 C 164.367188 192.660156 157.300781 192.773438 153.777344 192.773438 C 134.898438 192.773438 119.589844 208.066406 119.589844 226.945312 C 119.605469 240.277344 127.253906 251.84375 138.410156 257.457031 Z M 138.410156 257.457031 " fill-opacity="1" fill-rule="nonzero"/><path fill="#ffffff" d="M 228.632812 144.589844 C 244.503906 155.933594 267.097656 162.609375 288.105469 162.609375 L 288.105469 130.804688 C 276.382812 128.308594 262.875 122.183594 255.066406 113.667969 C 241.703125 105.339844 232.085938 88.421875 229.269531 72.332031 L 199.816406 72.332031 L 199.816406 236.898438 C 199.742188 255.71875 184.464844 270.953125 165.628906 270.953125 C 154.53125 270.953125 144.664062 265.65625 138.410156 257.472656 C 127.253906 251.84375 119.605469 240.292969 119.605469 226.960938 C 119.605469 208.082031 134.914062 192.789062 153.789062 192.789062 C 157.402344 192.789062 165.179688 192.671875 172.042969 193.078125 L 172.042969 160.839844 C 120.855469 163.464844 85.390625 194.3125 85.390625 236.925781 C 85.390625 257.253906 95.855469 276.914062 112.320312 289.148438 C 124.207031 297.128906 138.527344 303.917969 153.921875 303.917969 C 195.1875 303.917969 228.660156 268.339844 228.660156 227.089844 Z M 228.632812 144.589844 " fill-opacity="1" fill-rule="nonzero"/><path fill="#b5ddf5" d="M 288.105469 130.804688 L 288.105469 122.199219 C 277.527344 122.214844 264.050781 119.253906 255.066406 113.652344 C 263.003906 122.359375 276.585938 128.351562 288.105469 130.804688 Z M 229.253906 72.316406 C 228.980469 70.777344 228.777344 70.007812 228.644531 68.441406 L 228.644531 58.71875 L 187.976562 58.71875 L 187.976562 227.0625 C 187.917969 245.878906 172.625 261.113281 153.789062 261.113281 C 148.261719 261.113281 143.039062 259.808594 138.410156 257.472656 C 144.664062 265.671875 154.515625 270.953125 165.628906 270.953125 C 184.476562 270.953125 199.742188 255.71875 199.816406 236.898438 L 199.816406 72.316406 Z M 172.027344 160.808594 L 172.027344 150.074219 C 165.675781 150.074219 154.601562 150.074219 151.164062 150.074219 C 116.253906 150.074219 73.539062 185.796875 73.539062 227.0625 C 73.539062 252.929688 89.398438 279.308594 112.292969 289.117188 C 98.277344 279.308594 84.972656 257.226562 84.972656 236.898438 C 84.972656 196.171875 119.636719 163.4375 172.027344 160.808594 Z M 172.027344 160.808594 " fill-opacity="1" fill-rule="nonzero"/></svg>