<svg xmlns="http://www.w3.org/2000/svg" xmlns:xlink="http://www.w3.org/1999/xlink" width="500" zoomAndPan="magnify" viewBox="0 0 375 374.999991" height="500" preserveAspectRatio="xMidYMid meet" version="1.0"><defs><clipPath id="1130754ff8"><path d="M 0.9375 0 L 375 0 L 375 374.808594 L 0.9375 374.808594 Z M 0.9375 0 " clip-rule="nonzero"/></clipPath></defs><g clip-path="url(#1130754ff8)"><path fill="#ffffff" d="M 320.648438 53.660156 C 285.457031 18.429688 238.644531 -0.941406 188.792969 -0.941406 C 86.085938 -0.941406 2.496094 82.570312 2.496094 185.242188 C 2.496094 218.039062 11.09375 250.117188 27.390625 278.308594 L 0.941406 374.808594 L 99.75 348.902344 C 126.996094 363.730469 157.648438 371.589844 188.769531 371.589844 L 188.84375 371.589844 C 291.550781 371.589844 375.214844 288.078125 375.214844 185.40625 C 375.214844 135.644531 355.820312 88.90625 320.632812 53.691406 Z M 188.84375 340.179688 C 161.011719 340.179688 133.75 332.6875 109.957031 318.589844 L 104.285156 315.207031 L 45.652344 330.542969 L 61.316406 273.453125 L 57.644531 267.589844 C 42.058594 242.996094 33.917969 214.535156 33.917969 185.257812 C 33.917969 99.917969 103.410156 30.464844 188.925781 30.464844 C 230.277344 30.464844 269.238281 46.613281 298.464844 75.808594 C 327.703125 105.09375 343.777344 143.917969 343.777344 185.300781 C 343.710938 270.703125 274.21875 340.15625 188.828125 340.15625 Z M 273.765625 224.230469 C 269.140625 221.878906 246.210938 210.65625 241.960938 209.101562 C 237.703125 207.546875 234.605469 206.75 231.445312 211.453125 C 228.359375 216.074219 219.410156 226.582031 216.679688 229.722656 C 213.949219 232.804688 211.246094 233.246094 206.621094 230.894531 C 201.996094 228.542969 186.925781 223.636719 169.160156 207.78125 C 155.339844 195.453125 145.964844 180.191406 143.234375 175.570312 C 140.503906 170.949219 142.933594 168.378906 145.304688 166.109375 C 147.449219 164.035156 149.9375 160.683594 152.285156 157.960938 C 154.640625 155.234375 155.371094 153.332031 156.917969 150.183594 C 158.476562 147.101562 157.714844 144.375 156.542969 142.039062 C 155.371094 139.695312 146.027344 116.789062 142.226562 107.460938 C 138.488281 98.347656 134.585938 99.617188 131.71875 99.457031 C 128.988281 99.324219 125.902344 99.324219 122.828125 99.324219 C 119.75 99.324219 114.671875 100.488281 110.414062 105.125 C 106.15625 109.746094 94.097656 121.046875 94.097656 143.945312 C 94.097656 166.84375 110.769531 188.9375 113.117188 192.089844 C 115.46875 195.160156 145.957031 242.207031 192.667969 262.332031 C 203.761719 267.09375 212.433594 269.964844 219.191406 272.175781 C 230.363281 275.691406 240.496094 275.179688 248.507812 274 C 257.464844 272.6875 276.0625 262.765625 279.957031 251.898438 C 283.855469 241.027344 283.855469 231.722656 282.6875 229.796875 C 281.582031 227.722656 278.503906 226.582031 273.796875 224.199219 Z M 273.765625 224.230469 " fill-opacity="1" fill-rule="evenodd"/></g></svg>